<svg version="1.1" viewBox="0.0 0.0 648.3333333333334 150.66666666666666" fill="none" stroke="none" stroke-linecap="square" stroke-miterlimit="10" xmlns:xlink="http://www.w3.org/1999/xlink" xmlns="http://www.w3.org/2000/svg"><clipPath id="p.0"><path d="m0 0l648.3333 0l0 150.66667l-648.3333 0l0 -150.66667z" clip-rule="nonzero"/></clipPath><g clip-path="url(#p.0)"><path fill="#000000" fill-opacity="0.0" d="m0 0l648.3333 0l0 150.66667l-648.3333 0z" fill-rule="evenodd"/><path fill="#000000" fill-opacity="0.0" d="m0 12.076116l611.33856 0l0 126.58268l-611.33856 0z" fill-rule="evenodd"/><path fill="#000000" d="m45.265625 104.35549q-7.34375 0 -13.53125 -2.296875q-6.1875 -2.3125 -10.703125 -6.53125q-4.515625 -4.21875 -7.046875 -9.9375q-2.515625 -5.71875 -2.515625 -12.453125q0 -6.828125 2.515625 -12.500004q2.53125 -5.6875 7.046875 -9.90625q4.515625 -4.21875 10.703125 -6.515625q6.1875 -2.3125 13.4375 -2.3125q7.34375 0 13.484375 2.3125q6.140625 2.296875 10.65625 6.515625q4.53125 4.21875 7.046875 9.90625q2.53125 5.671879 2.53125 12.500004q0 6.734375 -2.53125 12.453125q-2.515625 5.71875 -7.046875 9.9375q-4.515625 4.21875 -10.65625 6.53125q-6.140625 2.296875 -13.390625 2.296875zm-0.09375 -16.296875q2.828125 0 5.25 -1.015625q2.4375 -1.03125 4.265625 -2.9375q1.84375 -1.921875 2.859375 -4.6875q1.03125 -2.78125 1.03125 -6.28125q0 -3.5 -1.03125 -6.265625q-1.015625 -2.78125 -2.859375 -4.703129q-1.828125 -1.921875 -4.265625 -2.9375q-2.421875 -1.03125 -5.25 -1.03125q-2.8125 0 -5.25 1.03125q-2.421875 1.015625 -4.265625 2.9375q-1.828125 1.9218788 -2.859375 4.703129q-1.015625 2.765625 -1.015625 6.265625q0 3.5 1.015625 6.28125q1.03125 2.765625 2.859375 4.6875q1.84375 1.90625 4.265625 2.9375q2.4375 1.015625 5.25 1.015625zm71.592606 15.796875q-6.046875 0 -10.015625 -2.609375q-3.96875 -2.609375 -5.859375 -7.9375q-1.875 -5.328125 -1.875 -13.609375q0 -8.4375 1.75 -13.765625q1.75 -5.343754 5.671875 -7.906254q3.9375 -2.5625 10.328125 -2.5625q6.15625 0 11.265625 2.953125q5.125 2.9375 8.1875 8.359379q3.078125 5.421875 3.078125 12.921875q0 7.515625 -3.078125 12.9375q-3.0625 5.40625 -8.1875 8.3125q-5.109375 2.90625 -11.265625 2.90625zm-31.140625 15.6875l0 -63.218754l18.34375 0l0 6.3125l0.09375 17.062504l0.84375 17.0625l0 22.78125l-19.28125 0zm26.53125 -30.71875q2.140625 0 3.84375 -1.015625q1.703125 -1.03125 2.71875 -3.078125q1.03125 -2.046875 1.03125 -5.03125q0 -3.0625 -1.03125 -5.109375q-1.015625 -2.0625 -2.71875 -3.078125q-1.703125 -1.03125 -3.84375 -1.03125q-2.125 0 -3.84375 1.03125q-1.703125 1.015625 -2.734375 3.078125q-1.015625 2.046875 -1.015625 5.109375q0 2.984375 1.015625 5.03125q1.03125 2.046875 2.734375 3.078125q1.71875 1.015625 3.84375 1.015625zm58.96405 15.03125q-8.53125 0 -14.890625 -3.15625q-6.359375 -3.171875 -9.859375 -8.671875q-3.484375 -5.5 -3.484375 -12.40625q0 -7.09375 3.453125 -12.546875q3.453125 -5.468754 9.46875 -8.531254q6.015625 -3.078125 13.53125 -3.078125q6.90625 0 12.75 2.734375q5.84375 2.734375 9.375 8.109379q3.546875 5.375 3.546875 13.3125q0 1.015625 -0.09375 2.265625q-0.078125 1.234375 -0.15625 2.25l-35.921875 0l0 -9.296875l25.6875 0l-7.265625 2.46875q0 -2.734375 -0.984375 -4.640625q-0.96875 -1.921875 -2.6875 -2.984375q-1.703125 -1.078125 -4.078125 -1.078125q-2.390625 0 -4.140625 1.078125q-1.75 1.0625 -2.6875 2.984375q-0.9375 1.90625 -0.9375 4.640625l0 2.90625q0 2.984375 1.1875 5.125q1.1875 2.125 3.40625 3.203125q2.21875 1.0625 5.375 1.0625q3.25 0 5.34375 -0.859375q2.09375 -0.859375 4.390625 -2.5625l10.0625 10.15625q-3.40625 3.671875 -8.40625 5.59375q-4.984375 1.921875 -11.984375 1.921875zm62.375504 -48.39063q5.375 0 9.71875 2.1875q4.359375 2.171875 6.875 6.781254q2.515625 4.609375 2.515625 11.9375l0 26.625l-19.28125 0l0 -23.296875q0 -4.34375 -1.53125 -6.171875q-1.53125 -1.84375 -4.1875 -1.84375q-1.953125 0 -3.625 0.890625q-1.65625 0.890625 -2.640625 2.953125q-0.984375 2.046875 -0.984375 5.546875l0 21.921875l-19.28125 0l0 -46.67188l18.34375 0l0 13.656254l-3.671875 -3.9375q2.734375 -5.281254 7.375 -7.921879q4.65625 -2.65625 10.375 -2.65625zm69.03 47.531254l0 -26.203125l4.609375 12.03125l-27.125 -45.562504l21.234375 0l18.34375 31.156254l-12.359375 0l18.515625 -31.156254l19.453125 0l-26.96875 45.562504l4.4375 -12.03125l0 26.203125l-20.140625 0zm64.16608 0.859375q-7.9375 0 -14.046875 -3.109375q-6.09375 -3.125 -9.59375 -8.578125q-3.484375 -5.46875 -3.484375 -12.546875q0 -7.09375 3.484375 -12.546875q3.5 -5.468754 9.59375 -8.531254q6.109375 -3.078125 14.046875 -3.078125q7.9375 0 14.078125 3.078125q6.15625 3.0625 9.609375 8.531254q3.453125 5.453125 3.453125 12.546875q0 7.078125 -3.453125 12.546875q-3.453125 5.453125 -9.609375 8.578125q-6.140625 3.109375 -14.078125 3.109375zm0 -15.03125q2.140625 0 3.84375 -1.015625q1.703125 -1.03125 2.71875 -3.109375q1.03125 -2.09375 1.03125 -5.078125q0 -3.078125 -1.03125 -5.078125q-1.015625 -2.015625 -2.71875 -3.03125q-1.703125 -1.03125 -3.84375 -1.03125q-2.125 0 -3.84375 1.03125q-1.703125 1.015625 -2.734375 3.03125q-1.015625 2.0 -1.015625 5.078125q0 2.984375 1.015625 5.078125q1.03125 2.078125 2.734375 3.109375q1.71875 1.015625 3.84375 1.015625zm52.649323 15.03125q-5.546875 0 -10.03125 -2.265625q-4.46875 -2.265625 -7.03125 -7.078125q-2.5625 -4.828125 -2.5625 -12.421875l0 -25.765629l19.28125 0l0 22.437504q0 4.953125 1.625 6.921875q1.625 1.953125 4.4375 1.953125q1.703125 0 3.1875 -0.890625q1.5 -0.90625 2.4375 -2.984375q0.953125 -2.09375 0.953125 -5.515625l0 -21.921879l19.28125 0l0 46.67188l-18.34375 0l0 -13.484375l3.65625 3.671875q-2.46875 5.453125 -7.03125 8.0625q-4.5625 2.609375 -9.859375 2.609375zm40.105896 -0.859375l0 -46.67188l18.34375 0l0 14.078129l-2.984375 -4.015625q2.140625 -5.453129 6.828125 -8.187504q4.6875 -2.734375 11.265625 -2.734375l0 17.062504q-1.28125 -0.15625 -2.265625 -0.234375q-0.984375 -0.09375 -2.0 -0.09375q-4.359375 0 -7.140625 2.265625q-2.765625 2.25 -2.765625 7.796875l0 20.734375l-19.28125 0z" fill-rule="nonzero"/><g filter="url(#shadowFilter-p.1)"><use xlink:href="#p.1" transform="matrix(1.0 0.0 0.0 1.0 2.2476396325459578 5.563102887139098)"/></g><defs><filter id="shadowFilter-p.1" filterUnits="userSpaceOnUse"><feGaussianBlur in="SourceAlpha" stdDeviation="2.0" result="blur"/><feComponentTransfer in="blur" color-interpolation-filters="sRGB"><feFuncR type="linear" slope="0" intercept="0.0"/><feFuncG type="linear" slope="0" intercept="0.0"/><feFuncB type="linear" slope="0" intercept="0.0"/><feFuncA type="linear" slope="0.5" intercept="0"/></feComponentTransfer></filter></defs><g id="p.1"><path fill="#9fc5e8" d="m512.50397 73.333336l0 0c0 -32.92835 27.370544 -59.622047 61.13385 -59.622047l0 0c16.213684 0 31.763306 6.2815895 43.22815 17.462893c11.464844 11.181305 17.9057 26.346405 17.9057 42.159157l0 0c0 32.928345 -27.370544 59.622047 -61.13385 59.622047l0 0c-33.763306 0 -61.13385 -26.693703 -61.13385 -59.622047z" fill-rule="evenodd"/><path stroke="#000000" stroke-width="16.0" stroke-linejoin="round" stroke-linecap="butt" d="m512.50397 73.333336l0 0c0 -32.92835 27.370544 -59.622047 61.13385 -59.622047l0 0c16.213684 0 31.763306 6.2815895 43.22815 17.462893c11.464844 11.181305 17.9057 26.346405 17.9057 42.159157l0 0c0 32.928345 -27.370544 59.622047 -61.13385 59.622047l0 0c-33.763306 0 -61.13385 -26.693703 -61.13385 -59.622047z" fill-rule="evenodd"/></g><path fill="#000000" fill-opacity="0.0" d="m554.01575 29.95013l39.24408 0l0 90.83464l-39.24408 0z" fill-rule="evenodd"/><path fill="#000000" d="m574.6564 62.890133q-3.703125 0 -5.78125 -1.625q-2.078125 -1.640625 -2.078125 -4.78125q0 -3.140625 2.078125 -4.765625q2.078125 -1.625 5.78125 -1.625q3.78125 0 5.828125 1.625q2.046875 1.625 2.046875 4.765625q0 3.140625 -2.046875 4.78125q-2.046875 1.625 -5.828125 1.625zm7.75 2.7500038l0 26.75q0 1.734375 0.703125 2.34375q0.703125 0.59375 1.859375 0.59375l0.125 0l0 5.0625l-20.28125 0l0 -5.0625l0.125 0q1.21875 0 1.890625 -0.59375q0.671875 -0.609375 0.671875 -2.34375l0 -19.265625q0 -0.765625 -0.515625 -1.078125q-0.515625 -0.328125 -1.671875 -0.578125l-0.5 -0.140625l0 -5.6875l17.59375 0z" fill-rule="nonzero"/></g></svg>