<svg version="1.1" viewBox="0.0 0.0 147.53280839895012 148.83727034120736" fill="none" stroke="none" stroke-linecap="square" stroke-miterlimit="10" xmlns:xlink="http://www.w3.org/1999/xlink" xmlns="http://www.w3.org/2000/svg"><clipPath id="p.0"><path d="m0 0l147.5328 0l0 148.83727l-147.5328 0l0 -148.83727z" clip-rule="nonzero"/></clipPath><g clip-path="url(#p.0)"><path fill="#000000" fill-opacity="0.0" d="m0 0l147.5328 0l0 148.83727l-147.5328 0z" fill-rule="evenodd"/><g filter="url(#shadowFilter-p.1)"><use xlink:href="#p.1" transform="matrix(1.0 0.0 0.0 1.0 2.2476396325459316 5.563102887139098)"/></g><defs><filter id="shadowFilter-p.1" filterUnits="userSpaceOnUse"><feGaussianBlur in="SourceAlpha" stdDeviation="2.0" result="blur"/><feComponentTransfer in="blur" color-interpolation-filters="sRGB"><feFuncR type="linear" slope="0" intercept="0.0"/><feFuncG type="linear" slope="0" intercept="0.0"/><feFuncB type="linear" slope="0" intercept="0.0"/><feFuncA type="linear" slope="0.5" intercept="0"/></feComponentTransfer></filter></defs><g id="p.1"><path fill="#9fc5e8" d="m9.868767 70.09449l0 0c0 -32.92835 27.37056 -59.622047 61.133858 -59.622047l0 0c16.213707 0 31.763344 6.2815914 43.228165 17.462894c11.464821 11.181303 17.9057 26.346403 17.9057 42.159157l0 0c0 32.928345 -27.370567 59.622047 -61.133865 59.622047l0 0c-33.763298 0 -61.133858 -26.693703 -61.133858 -59.622047z" fill-rule="evenodd"/><path stroke="#000000" stroke-width="16.0" stroke-linejoin="round" stroke-linecap="butt" d="m9.868767 70.09449l0 0c0 -32.92835 27.37056 -59.622047 61.133858 -59.622047l0 0c16.213707 0 31.763344 6.2815914 43.228165 17.462894c11.464821 11.181303 17.9057 26.346403 17.9057 42.159157l0 0c0 32.928345 -27.370567 59.622047 -61.133865 59.622047l0 0c-33.763298 0 -61.133858 -26.693703 -61.133858 -59.622047z" fill-rule="evenodd"/></g><path fill="#000000" fill-opacity="0.0" d="m51.380577 24.677166l39.244095 0l0 90.83464l-39.244095 0z" fill-rule="evenodd"/><path fill="#000000" d="m72.0212 57.61717q-3.703125 0 -5.78125 -1.625q-2.078125 -1.640625 -2.078125 -4.78125q0 -3.140625 2.078125 -4.765625q2.078125 -1.625 5.78125 -1.625q3.78125 0 5.828125 1.625q2.046875 1.625 2.046875 4.765625q0 3.140625 -2.046875 4.78125q-2.046875 1.625 -5.828125 1.625zm7.75 2.75l0 26.749996q0 1.734375 0.703125 2.34375q0.703125 0.59375 1.859375 0.59375l0.125 0l0 5.0625l-20.28125 0l0 -5.0625l0.125 0q1.21875 0 1.890625 -0.59375q0.671875 -0.609375 0.671875 -2.34375l0 -19.265625q0 -0.765625 -0.515625 -1.078125q-0.515625 -0.328125 -1.671875 -0.578125l-0.5 -0.140625l0 -5.687496l17.59375 0z" fill-rule="nonzero"/></g></svg>